# xmcd CD database file
#
# Track frame offsets:
#	150
#	16222
#	38970
#	56385
#	68065
#	90777
#	110030
#	127227
#	153265
#	164745
#	175290
#	185830
#	196590
#	209470
#	223527
#	234772
#
# Disc length: 3264 seconds
#
# Revision: 4
# Processed by: cddbd v1.5.2PL0 Copyright (c) Steve Scherf et al.
# Submitted via: CDex 1.51
#
DISCID=da0cbe10
DTITLE=Eric Clapton and The Yardbirds - For Your Love
DYEAR=1994
DGENRE=Rhythmic Soul
TTITLE0=Louise
TTITLE1=Five Long Years
TTITLE2=Early in the Morning
TTITLE3=Pounds and Stomps
TTITLE4=First Time I Met the Blues
TTITLE5=They Call It Stormy Monday Blues
TTITLE6=Big Boss Man
TTITLE7=She's So Respectable
TTITLE8=Snake Drive
TTITLE9=West Coast Idea
TTITLE10=Eric's Blues
TTITLE11=Got to Hurry
TTITLE12=Freight Loader
TTITLE13=Draggin' My Tail
TTITLE14=For Your Love
TTITLE15=I Wish You Would
EXTD=YEAR: 1994
EXTT0=
EXTT1=
EXTT2=
EXTT3=
EXTT4=
EXTT5=
EXTT6=
EXTT7=
EXTT8=
EXTT9=
EXTT10=
EXTT11=
EXTT12=
EXTT13=
EXTT14=
EXTT15=
PLAYORDER=
